<?xml version="1.0" encoding="utf-8"?>
<!-- Generator: Adobe Illustrator 22.0.0, SVG Export Plug-In . SVG Version: 6.00 Build 0)  -->
<svg version="1.1" id="Capa_1" xmlns="http://www.w3.org/2000/svg" xmlns:xlink="http://www.w3.org/1999/xlink" x="0px" y="0px"
	 viewBox="0 0 512 512" style="enable-background:new 0 0 512 512;" xml:space="preserve">
<style type="text/css">
	.st0{fill:#5B4F98;}
	.st1{fill:#666666;}
	.st2{fill:#FED198;}
	.st3{fill:#ECF0F1;}
	.st4{fill:#FFCA4F;}
	.st5{fill:#15BDB1;}
	.st6{fill:#FFFFFF;}
	.st7{fill:#20D0C2;}
	.st8{fill:#F0B97D;}
	.st9{fill:#C8CACC;}
</style>
<path class="st0" d="M256,512c141,0,256-115,256-256S397,0,256,0S0,115,0,256S115,512,256,512z"/>
<path class="st1" d="M350.7,269.5c7.9-13.3,20.3-28.6,7.7-52c-18.6-81.2,67-97.7,80-64.2c21.1,7.9,20.5,51.7,9.7,74.6
	c-0.5,9.4-10.3,17.6,7.4,41.9l1.3-0.3C433.8,276.2,374.9,273.1,350.7,269.5L350.7,269.5z"/>
<path class="st2" d="M373.2,227.4c6.5,13.6,8.8,18.9,16.9,25c-1.9,34.5-28.4,18-47.8,49.4c-1.7,2.7-6.9,16.2-11.5,29.4
	c21.5,14.1,47.2,22.3,74.8,22.3c27.6,0,53.3-8.2,74.8-22.3c-4.6-13.1-9.9-26.6-11.5-29.4c-19.4-31.3-45.9-14.8-47.8-49.4
	c8-6.1,10.4-11.4,16.9-25c1.6,0.8,3.2,1.9,4.5,0.5s7.4-20.2,6.3-22.7c-1.1-2.5-2.2-0.9-3.8,0.2c0.1-0.5-1.3,6.8-1.3,5.7
	c0.2-8.9-6.2-16.7-8.2-40.1c-18.4,34.1-71.4,20.1-69.2,34.4c-10.3-7.2,2.2,22.2,2.5,22.5C369.9,229.4,371.6,228.3,373.2,227.4
	L373.2,227.4z"/>
<path class="st3" d="M385.8,268.5c-2.3,3.6-5.3,5.9-8.8,7.7l0,0l29.6,56.1l27.5-56.1c-3.9-2.1-7.3-4.7-9.6-9.1l0,0l-18.8,9.3l-0.6,0
	l-16.7-8.9L385.8,268.5L385.8,268.5L385.8,268.5z"/>
<path class="st4" d="M400.9,276.7l1.8,5.2l-3.9,59.5l6.7,6.2l6.7-6.2l-3.9-59.5l1.8-5.2l-4.6-0.2L400.9,276.7L400.9,276.7z"/>
<path class="st5" d="M376.9,276.3c-9.8,5.3-23.5,7.4-34.7,25.5c-1.7,2.7-6.9,16.2-11.5,29.4c21.5,14.1,47.2,22.3,74.8,22.3
	c27.6,0,53.3-8.2,74.8-22.3c-4.6-13.1-9.9-26.6-11.5-29.4c-11.3-18.2-24.9-20.2-34.8-25.5l-28.3,55.4L376.9,276.3L376.9,276.3
	L376.9,276.3L376.9,276.3z"/>
<path class="st6" d="M387.9,261.9l-4.5,9.3l13.3,22.3l8.7-17L387.9,261.9L387.9,261.9L387.9,261.9z M423.1,261.9l4.5,9.1l-13.3,22.5
	l-8.7-17L423.1,261.9z"/>
<path class="st7" d="M379.2,275l26.5,51.7l26.1-51.6c1.3,0.8,2.7,1.6,4.2,2.3l-30.3,59.2l-30.6-59.3
	C376.5,276.5,377.9,275.8,379.2,275L379.2,275L379.2,275z"/>
<path class="st8" d="M127.5,243.6h51.9l4.2,43.8l7.5,6l15.8,10l-53.4,126.2L100,303.4l15.8-10l7.5-6L127.5,243.6
	C127.5,243.6,127.5,243.6,127.5,243.6z"/>
<path class="st3" d="M110.3,296.6l-43.1,13.7l86.2,119.2l73.3-123.2l-30.4-9.6l-26.8,18.9h-32.1L110.3,296.6
	C110.3,296.6,110.3,296.6,110.3,296.6z"/>
<path class="st4" d="M143.8,313.9l3.7,9.1l-8.2,103.5l14.1,10.8l14.1-10.8l-8.2-103.5l3.7-9.1l-9.6-0.4L143.8,313.9L143.8,313.9z"/>
<path class="st5" d="M111.1,296.3l-76.1,24.3c0,0-9.9,5.5-12.8,20.7c-0.6,2.9-0.9,8.8-1,16.6c36.3,83.6,116,144,210.6,152.9
	l4.4-72.5l4.1,73.2c5.2,0.3,10.5,0.5,15.8,0.5c12.9,0,25.5-1,37.9-2.8c-2.4-35.8-6.4-153.9-9.1-167.9c-2.9-15.3-12.8-20.7-12.8-20.7
	l-75.6-24l-42.3,138.6L111.1,296.3L111.1,296.3L111.1,296.3z"/>
<path class="st7" d="M111.1,296.3l-16.4,5.2l-3.2,41.7c0,0,0.9,3.4,3.5,3.1l14.8,5.6c0,0,1,1,0.1,2.2l-12.7,8.7L155,467.7
	l54.7-104.9l-12.7-8.7c-0.9-1.2,0.1-2.2,0.1-2.2l14.8-5.6c2.6,0.3,3.5-3.1,3.5-3.1l-3.1-41.5l-15.9-5l-42.3,138.6L111.1,296.3
	L111.1,296.3L111.1,296.3z"/>
<path class="st2" d="M90,152.9c0,4.3-1.6,8.4-1.4,12.5C74,162.7,81,206.1,89.3,212c0.7,0.5,2.3-0.6,3.6-1.4
	c2.9,15.9,27.3,58.5,42.8,76.5c4.3,5,30.7,4.9,35,0.2c15.9-17.5,40.3-60.6,43.2-76.7c1.4,0.9,3,1.9,3.6,1.4
	c8.3-6,15.3-49.3,0.7-46.6c0.1-4.1-1.4-8.3-1.4-12.5c-0.8-33.7-31.3-50.5-63.4-50.6C121.3,102.4,90.8,119.3,90,152.9
	C90,152.9,90,152.9,90,152.9z"/>
<path class="st1" d="M109.6,109.8c-4.6-0.5-21.2,4.6-23.2,22.1c-2,17.6-1,33.8-1,33.8s9.7,2.5,11,12.4c1.2,10,0.4,10,0.4,10l3.5-0.8
	l2.5-17.1c14.6-9.1-0.1-22.6,14.5-25.8c39.4,28,74.1,23.2,89.7,10.1c0,0-3.7,13.8-0.8,18.7c2.8,4.9,1.1,12.7,1.1,12.7l3.7-0.2
	c0,0-0.7-20.3,7.5-20.2C249.2,114.4,151.4,51.1,109.6,109.8L109.6,109.8L109.6,109.8z"/>
<g>
	<path class="st6" d="M122.9,281.1c1.1,0.1-12.7,15.6-12.7,15.6l11.8,40.2l31.5-23.5C136.1,305,125.8,293.9,122.9,281.1L122.9,281.1
		z"/>
	<path class="st6" d="M184,281.1c-1.1,0.1,12.7,15.6,12.7,15.6L184.9,337l-31.5-23.5C170.8,305,181.1,293.9,184,281.1L184,281.1z"/>
	<path class="st6" d="M327.6,168.9l23.6,24.2l-6.4-24.2h1.9c3,0,5.4-2.4,5.4-5.4v-43.9c0-3-2.4-5.4-5.4-5.4h-81
		c-3,0-5.4,2.4-5.4,5.4v43.9c0,3,2.4,5.4,5.4,5.4H327.6L327.6,168.9z"/>
</g>
<path class="st9" d="M272.2,121.7h62.4v3.2h-62.4L272.2,121.7L272.2,121.7z M272.2,143.8h37v3.2h-37L272.2,143.8L272.2,143.8z
	 M272.2,136.4h62.4v3.2h-62.4L272.2,136.4L272.2,136.4z M272.2,129.1h62.4v3.2h-62.4L272.2,129.1L272.2,129.1z"/>
<path class="st6" d="M261.9,260.1l-27.8,28.5l7.6-28.5h-2.3c-3.5,0-6.3-2.9-6.3-6.3V202c0-3.5,2.9-6.3,6.3-6.3H335
	c3.5,0,6.3,2.9,6.3,6.3v51.7c0,3.5-2.9,6.3-6.3,6.3H261.9L261.9,260.1L261.9,260.1z"/>
<path class="st9" d="M327.3,204.6h-73.5v3.8h73.5V204.6z M327.3,230.5h-43.6v3.8h43.6V230.5z M327.3,221.9h-73.5v3.8h73.5V221.9z
	 M327.3,213.2h-73.5v3.8h73.5V213.2z"/>
</svg>
