<?xml version="1.0" encoding="UTF-8"?><svg enable-background="new 0 0 512 512" version="1.1" viewBox="0 0 512 512" xml:space="preserve" xmlns="http://www.w3.org/2000/svg"><path d="m256 1e-3c141.38 0 256 114.62 256 256s-114.62 256-256 256c-141.38 0-256-114.61-256-256s114.62-256 256-256z" fill="#0E7886"/><path d="M40.133,27.61h431.733V310.28H40.133V27.61z" fill="#20D0C2"/><path d="M463.387,27.61H256v271.079h207.387V27.61z" fill="#DFE1E3"/><path d="m456.04 27.61c-66.679 0-130.37-28.434-200.04 0v253.92h200.04v-253.92z" fill="#fff"/><path d="M48.613,27.61H256v271.079H48.613V27.61z" fill="#DFE1E3"/><path d="m55.956 27.61c66.679 0 163.04-27.939 200.04 0v253.92h-200.04v-253.92z" fill="#fff"/><path d="m252.61 27.61h6.781v253.92h-6.781v-253.92z" fill="#ECF0F1"/><path d="M73.05,49.05h77.205v10.607H73.05V49.05z" fill="#FBB429"/><path d="m73.05 139.98h154.41v5.017h-154.41v-5.017zm205.76 0h154.41v5.017h-154.41v-5.017zm0-66.175h154.41v5.018h-154.41v-5.018zm0 50.593h67.609v5.017h-67.609v-5.017zm0-10.117h154.41v5.017h-154.41v-5.017zm0-10.121h154.41v5.017h-154.41v-5.017zm0-10.117h67.609v5.017h-67.609v-5.017zm0-10.118h154.41v5.016h-154.41v-5.016zm0 106.65h53.143v5.017h-53.143v-5.017zm0-10.119h154.41v5.016h-154.41v-5.016zm0-10.119h154.41v5.018h-154.41v-5.018zm0-10.118h154.41v5.017h-154.41v-5.017zm0-10.119h154.41v5.017h-154.41v-5.017zm-205.76-76.293h154.41v5.018h-154.41v-5.018zm0 50.593h67.61v5.017h-67.61v-5.017zm0-10.117h154.41v5.017h-154.41v-5.017zm0-10.121h154.41v5.017h-154.41v-5.017zm0-10.117h154.41v5.017h-154.41v-5.017zm0-10.118h154.41v5.016h-154.41v-5.016zm0 106.65h53.144v5.017h-53.144v-5.017zm0-10.119h154.41v5.016h-154.41v-5.016zm0-10.119h154.41v5.018h-154.41v-5.018zm0-10.118h154.41v5.017h-154.41v-5.017zm0-10.119h154.41v5.017h-154.41v-5.017z" fill="#DFE1E3"/><path d="m294.74 16.526 20.891-1.795v108.45l-10.513-7.65-10.378 7.65v-106.65z" fill="#FF5B61"/><path d="m357.96 290.99v25.129c0.425 5.337-1.462 8.633-4.512 10.585h-7e-3c-2.866 1.832-6.695 2.337-10.493 2.227v6e-3h-74.387l-0.068-7e-3c-2.926-0.119-4.954 0.39-6.187 1.45l-5e-3 -2e-3c-1.151 0.992-1.675 2.599-1.654 4.732l7e-3 0.014v19.044h-3.536v-19.045h7e-3c-0.029-3.192 0.879-5.7 2.873-7.417v-7e-3c1.903-1.637 4.72-2.44 8.564-2.293v-6e-3h74.387l0.048 7e-3c3.202 0.099 6.362-0.277 8.548-1.67l-2e-3 -5e-3c1.992-1.275 3.212-3.565 2.889-7.412l-7e-3 -0.144v-25.187h3.535v1e-3z" fill="#fff"/><path d="m87.07 351.88h337.86c9.153 0 16.637 7.487 16.637 16.638v131.26h-371.13v-131.26c0-9.151 7.487-16.638 16.637-16.638z" fill="#FF5B61"/><path d="m87.07 351.88h337.86c6.13 0 11.506 3.354 14.396 8.317h-366.64c2.888-4.963 8.264-8.317 14.39-8.317z" fill="#EC4B53"/><g fill="#fff"><path d="m251.96 339.63h17.707c1.371 0 2.488 1.121 2.488 2.486v9.708h-22.684v-9.708c0-1.365 1.117-2.486 2.489-2.486z"/><path d="m132.99 384.08h20.546v20.547h-20.546v-20.547zm-32.005 81.034h20.544v20.547h-20.544v-20.547zm289.48-27.128h20.547v47.675h-20.547v-47.675zm-32.002 27.128h20.548v20.547h-20.548v-20.547zm-32.002 0h20.547v20.547h-20.547v-20.547zm-33.466 0h20.548v20.547h-20.548v-20.547zm-32.001 0h20.547v20.547h-20.547v-20.547zm-96.009 0h86.787v20.547h-86.787v-20.547zm-32 0h20.546v20.547h-20.546v-20.547zm-32.004-27.01h52.424v20.544h-52.424v-20.544zm257.48 0h20.548v20.544h-20.548v-20.544zm-32.002 0h20.547v20.544h-20.547v-20.544zm-33.466 0h20.548v20.544h-20.548v-20.544zm-32.001 0h20.547v20.544h-20.547v-20.544zm-32.004 0h20.546v20.544h-20.546v-20.544zm-32.001 0h20.547v20.544h-20.547v-20.544zm-32.004 0h20.544v20.544h-20.544v-20.544zm-64.004-27.011h20.544v20.544h-20.544v-20.544zm289.48 0h20.547v20.544h-20.547v-20.544zm-32.002 0h20.548v20.544h-20.548v-20.544zm-32.003 0h20.547v20.544h-20.547v-20.544zm-64.665 0h51.747v20.544h-51.747v-20.544zm-32.805 0h20.546v20.544h-20.546v-20.544zm-32.001 0h20.547v20.544h-20.547v-20.544zm-32.004 0h20.544v20.544h-20.544v-20.544zm-32 0h20.546v20.544h-20.546v-20.544zm-32.004-27.013h20.544v20.547h-20.544v-20.547zm289.48 0h20.547v20.547h-20.547v-20.547zm-32.003 0h20.548v20.547h-20.548v-20.547zm-32.002 0h20.547v20.547h-20.547v-20.547zm-33.466 0h20.548v20.547h-20.548v-20.547zm-32.001 0h20.547v20.547h-20.547v-20.547zm-32.003 0h20.546v20.547h-20.546v-20.547zm-32.001 0h20.547v20.547h-20.547v-20.547zm-32.004 0h20.544v20.547h-20.544v-20.547z"/></g><path d="m164.55 364.66h15.553c1.75 0 3.18 1.43 3.18 3.179 0 1.752-1.43 3.186-3.18 3.186h-15.553c-1.752 0-3.181-1.434-3.181-3.186 0-1.749 1.43-3.179 3.181-3.179zm28.743 0h15.549c1.752 0 3.185 1.43 3.185 3.179 0 1.752-1.433 3.186-3.185 3.186h-15.549c-1.752 0-3.184-1.434-3.184-3.186 0-1.749 1.433-3.179 3.184-3.179z" fill="#FBB429"/></svg>
