<?xml version="1.0" encoding="UTF-8"?><svg enable-background="new 0 0 512 512" version="1.1" viewBox="0 0 512 512" xml:space="preserve" xmlns="http://www.w3.org/2000/svg"><path d="m256 512c141 0 256-115 256-256 0-141-115-256-256-256-141 0-256 115-256 256 0 141 115 256 256 256z" fill="#FFCA4F"/><path d="m369.75 430.03-19.94-85.457s68.234-65.651 60.586-149.81c-7.654-84.153-92.45-137.07-178.52-114.13-86.073 22.943-100.33 91.894-100.73 103.21-0.407 11.313 10.196 40.242 2.542 60.009-7.651 19.767-35.062 50.684-32.512 59.93 2.552 9.241 26.138 10.836 26.138 10.836s0.275 8.942-2.859 10.838c-3.137 1.896-1.367 9.33 3.795 13.464 5.157 4.134 13.734 6.94 13.734 6.94s-9.886 2.232-8.606 9.243c1.275 7.017 4.782 10.523 12.113 10.838 7.334 0.32 9.249-3.179 10.521 0.648 1.275 3.819 2.075 4.136 2.075 4.136s-7.323 18.969-0.947 32.992c6.382 14.025 16.257 14.038 27.738 11.163 11.478-2.877 33.789-9.251 33.789-9.251l6.109 31.109c6.387 45.273-24.444 68.547-25.094 69.032 18.122 4.068 36.968 6.23 56.321 6.23 57.011 0 109.66-18.647 152.21-50.159-4.102-1.978-37-30.348-38.461-31.809z" fill="#FF5B61"/><path d="m159.24 407.65c6.35 10.062 15.347 9.805 25.632 7.229 11.478-2.877 33.789-9.251 33.789-9.251l6.109 31.109c2.18 15.447 0.024 28.334-3.785 38.629l3e-3 -5e-3c21.312-30.411 5.592-53.651 8.401-65.192 2.807-11.541 47.408-22.455 56.764-29.627 9.356-7.174 16.058-26.977 16.058-26.977s-9.356 14.348-19.334 23.08c-9.98 8.732-87.482 31.494-102.3 36.486-14.067 4.74-20.706-4.53-21.341-5.477v-4e-3z" fill="#EC4B53"/><path d="m275.26 303.15c24.152 0 43.851-19.696 43.851-43.849s-19.699-43.851-43.851-43.851-43.851 19.699-43.851 43.851 19.698 43.849 43.851 43.849z" fill="#807D7D"/><path d="m275.26 298.99c21.86 0 39.688-17.828 39.688-39.688s-17.828-39.691-39.688-39.691-39.691 17.828-39.691 39.691c0 21.86 17.828 39.688 39.691 39.688z" fill="#ECF0F1"/><path d="m275.26 293.8c18.998 0 34.495-15.497 34.495-34.495s-15.497-34.495-34.495-34.495-34.495 15.497-34.495 34.495 15.497 34.495 34.495 34.495z" fill="#fff"/><path d="m271.58 201.06h7.302v54.587c0 2.009-1.642 3.651-3.651 3.651s-3.651-1.642-3.651-3.651v-54.587z" fill="#FFCA4F"/><path d="m210.71 87.729c53.606-19.641 117.1-9.049 155.61 30.338 45.892 46.933 56.586 132.33-23.554 222.7l26.991 89.266-19.94-85.457s68.234-65.651 60.586-149.81c-7.654-84.153-92.45-137.07-178.52-114.13-7.608 2.027-14.642 4.419-21.168 7.095z" fill="#EC4B53"/><path d="m267.27 72.072h17.472c2.649 0 4.818 2.167 4.818 4.818v124.18h-27.106v-124.18c0-2.652 2.169-4.818 4.818-4.818h-2e-3z" fill="#fff"/><path d="m271.58 207.02h7.302v-5.954h-7.302v5.954z" fill="#F5A209"/><path d="m275.26 272.07c7.032 0 12.769-5.739 12.769-12.769 0-7.035-5.739-12.769-12.769-12.769-7.035 0-12.769 5.734-12.769 12.769 0 7.033 5.734 12.769 12.769 12.769z" fill="#ECF0F1"/><path d="m275.26 267.8c4.679 0 8.496-3.819 8.496-8.496 0-4.682-3.819-8.496-8.496-8.496-4.682 0-8.496 3.814-8.496 8.496 0 4.679 3.814 8.496 8.496 8.496z" fill="#fff"/></svg>
