<?xml version="1.0" encoding="UTF-8"?>
<svg enable-background="new 0 0 512 512" version="1.1" viewBox="0 0 512 512" xml:space="preserve" xmlns="http://www.w3.org/2000/svg">
<path d="m256 512c141 0 256-115 256-256 0-141-115-256-256-256-141 0-256 115-256 256 0 141 115 256 256 256z" fill="#FF757C"/><path d="m175.06 242.87c11.646-19.575 29.999-42.301 11.36-76.846-27.436-119.96 99.008-144.29 118.13-94.776 31.109 11.73 30.282 76.308 14.282 110.1-0.711 13.904-15.174 26.033 10.956 61.908l1.881-0.409c-33.894 9.82-120.77 5.298-156.6 0.024h-3e-3z" fill="#666"/>
<path d="m208.28 180.74c9.535 20.029 13.06 27.848 24.9 36.85-2.765 51.007-41.934 26.634-70.577 72.882-2.471 3.992-10.214 23.945-17.039 43.35 31.736 20.782 69.669 32.877 110.44 32.877 40.764 0 78.7-12.095 110.43-32.877-6.825-19.405-14.568-39.358-17.039-43.35-28.643-46.249-67.812-21.878-70.579-72.882 11.843-9.002 15.368-16.821 24.9-36.85 2.337 1.222 4.779 2.877 6.678 0.745 1.896-2.135 10.927-29.842 9.304-33.582s-3.208-1.359-5.632 0.338c0.126-0.805-1.91 10.012-1.883 8.367 0.231-13.081-9.146-24.606-12.079-59.214-27.193 50.291-105.51 29.606-102.17 50.847-15.253-10.681 3.284 32.806 3.672 33.241 1.899 2.132 4.341 0.477 6.678-0.745l-2e-3 3e-3z" fill="#FED198"/>
<path d="m233.18 217.59c-0.685 12.669-3.617 20.682-8.079 26.29l31.825 17.453 31.035-16.181c-5.062-5.65-8.412-13.902-9.154-27.56 0 0-13.11 9.7-23.216 9.794-10.104 0.094-22.413-9.794-22.413-9.794l2e-3 -2e-3z" fill="#F0B97D"/>
<path d="m228.87 237.72c-7.145 15.415-21.978 17.154-37.907 25.703l64.376 103.26 0.661 5e-3c4.299 0 8.564-0.136 12.792-0.401l52.358-102.81c-16.606-8.947-32.037-10.447-38.836-27.68l-26.358 17.32-27.085-15.407v1e-3z" fill="#F1F1F1"/><path d="m230 231.58-6.586 13.731 19.581 32.903 12.805-25.086-25.8-21.548zm52.006 0 6.704 13.417-19.699 33.218-12.805-25.086 25.8-21.549z" fill="#fff"/>
<path d="m213.23 252.82c-16.415 7.759-44.037 10.88-62.776 37.65-1.831 2.615-6.224 12.105-11.213 23.801-23.13 27.224-53.538 64.017-53.981 69.798-0.719 9.34-2.153 16.163-1.437 17.957 0.719 1.794 16.446 63.859 16.446 63.859l56.992 1.146-17.766-72.19 30.293-26.699v120.28h172.41v-120.27l30.293 26.699-17.768 72.19 56.995-1.146s15.73-62.063 16.446-63.859c0.719-1.794-0.721-8.619-1.435-17.957-0.443-5.781-30.852-42.576-53.981-69.803-4.989-11.693-9.382-21.178-11.213-23.796-18.786-26.838-46.479-29.897-62.91-37.705l-33.094 64.056-9.54 13.941-9.104-14.057-33.658-63.878-5e-3 -0.01 2e-3 2e-3z" fill="#15BDB1"/>
<path d="m131.2 445.23c16.244 0 29.409 8.173 29.409 18.256s-13.167 18.256-29.409 18.256c-16.244 0-29.412-8.176-29.412-18.256 1e-3 -10.083 13.168-18.256 29.412-18.256zm0 4.821c-12.643 0-22.888 6.02-22.888 13.435 0 7.418 10.245 13.438 22.888 13.438 12.64 0 22.886-6.02 22.886-13.438 0-7.415-10.245-13.435-22.886-13.435z" fill="#ECF0F1"/>
<path d="m131.2 476.92c12.603 0 22.886-6.033 22.886-13.432s-10.282-13.438-22.886-13.438c-12.606 0-22.888 6.035-22.888 13.438 0 7.399 10.282 13.432 22.888 13.432z" fill="#377BB9"/>
<path d="m121.88 471.16v14.71c0 1.826-1.49 3.318-3.315 3.318h-5.852c-1.826 0-3.315-1.49-3.315-3.318v-22.765c0-0.349 0.055-0.685 0.155-1.002v-5.013c0-4.262 3.483-7.743 7.746-7.743h47.891c4.262 0 7.746 3.483 7.746 7.743v5.005c0.102 0.32 0.157 0.656 0.157 1.01v22.765c0 1.826-1.49 3.318-3.318 3.318h-5.847c-1.828 0-3.318-1.49-3.318-3.318v-14.71h-4.585v14.71c0 1.826-1.49 3.318-3.315 3.318h-5.849c-1.828 0-3.318-1.49-3.318-3.318v-14.71h-4.585v14.71c0 1.826-1.49 3.318-3.318 3.318h-5.849c-1.826 0-3.318-1.49-3.318-3.318v-14.71h-4.593z" fill="#FBB429"/>
<path d="m380.8 445.23c-16.244 0-29.412 8.173-29.412 18.256s13.167 18.256 29.412 18.256c16.244 0 29.412-8.176 29.412-18.256 0-10.083-13.168-18.256-29.412-18.256zm0 4.821c12.64 0 22.888 6.02 22.888 13.435 0 7.418-10.248 13.438-22.888 13.438-12.643 0-22.888-6.02-22.888-13.438 0-7.415 10.245-13.435 22.888-13.435z" fill="#ECF0F1"/>
<path d="m380.8 476.92c12.606 0 22.888-6.033 22.888-13.432s-10.282-13.438-22.888-13.438c-12.609 0-22.888 6.035-22.888 13.438 0 7.399 10.282 13.432 22.888 13.432z" fill="#377BB9"/>
<path d="m390.12 471.16v14.71c0 1.826 1.49 3.318 3.318 3.318h5.847c1.828 0 3.318-1.49 3.318-3.318v-22.765c0-0.349-0.055-0.685-0.155-1.002v-5.013c0-4.262-3.483-7.743-7.746-7.743h-47.893c-4.26 0-7.743 3.483-7.743 7.743v5.005c-0.105 0.32-0.157 0.656-0.157 1.01v22.765c0 1.826 1.49 3.318 3.318 3.318h5.849c1.826 0 3.315-1.49 3.315-3.318v-14.71h4.585v14.71c0 1.826 1.49 3.318 3.318 3.318h5.847c1.828 0 3.318-1.49 3.318-3.318v-14.71h4.585v14.71c0 1.826 1.49 3.318 3.318 3.318h5.849c1.826 0 3.315-1.49 3.315-3.318v-14.71h4.594z" fill="#FBB429"/>
<path d="m217.15 250.88 39.167 76.279 38.574-76.248c1.941 1.233 4.008 2.329 6.175 3.365l-44.748 87.448-45.147-87.98c2.109-1.018 4.087-1.66 5.978-2.867l1e-3 3e-3z" fill="#20D0C2"/>
<path d="m124.1 296.99h263.81c8.422 0 15.313 6.893 15.313 15.313v145.8c0 8.422-6.893 15.316-15.313 15.316h-263.81c-8.422 0-15.313-6.893-15.313-15.316v-145.8c0-8.422 6.894-15.313 15.313-15.313z" fill="#fff"/>
<path d="m114.59 480.94h282.82c3.2 0 5.815 2.615 5.815 5.815v11.208c0 3.203-2.615 5.815-5.815 5.815h-282.82c-3.197 0-5.813-2.612-5.813-5.815v-11.208c0-3.203 2.615-5.815 5.813-5.815z" fill="#C8CACC"/>
<g fill="#ECF0F1"><path d="m152.02 469.92h25v17.044h-25v-17.044zm182.95 0h24.997v17.044h-24.997v-17.044z"/>
<path d="m228.27 363.14h55.466c0.742 0 1.348 0.606 1.348 1.351v12.556c0 0.745-0.606 1.351-1.348 1.351h-55.466c-0.742 0-1.348-0.606-1.348-1.351v-12.556c0-0.745 0.605-1.351 1.348-1.351z"/>
</g></svg>
